<?xml version="1.0" encoding="UTF-8"?>
<svg width="16px" height="16px" viewBox="0 0 16 16" version="1.1" xmlns="http://www.w3.org/2000/svg" xmlns:xlink="http://www.w3.org/1999/xlink">
    <title>github</title>
    <g id="Home" stroke="none" stroke-width="1" fill="none" fill-rule="evenodd">
        <g id="Desktop-HD-Copy-12" transform="translate(-191.000000, -4131.000000)" fill="#4A4A4A" fill-rule="nonzero">
            <g id="github" transform="translate(191.000000, 4131.000000)">
                <path d="M6.55936848,11.8007262 C6.2562519,12.0754269 6.10695568,12.406211 6.05719028,12.7916494 C6.04683156,12.8416254 6.01567514,12.8844405 5.97192786,12.9088169 C5.59851329,13.0742089 5.2101343,13.1588697 4.80296278,13.0899266 C4.315749,13.0074092 3.9767874,12.7109181 3.72830837,12.2897579 C3.51254227,11.9228948 3.23065429,11.6253321 2.82800689,11.491018 C2.65400198,11.4327914 2.45563636,11.4385069 2.26805905,11.4349348 C2.21342151,11.4349348 2.12328696,11.4924469 2.11110661,11.5403142 C2.09892627,11.5881814 2.15077974,11.6674838 2.19080086,11.7189232 C2.23259066,11.7683472 2.28254016,11.8098236 2.33835704,11.8414491 C2.79529397,12.1232942 3.09005831,12.54374 3.28842392,13.0370583 C3.63121363,13.8890236 4.28547214,14.2516001 5.14262039,14.2841069 C5.43494866,14.2948234 5.729365,14.2483851 6.03317759,14.2248087 C6.03317759,14.7184842 6.04013779,15.222519 6.02900148,15.725125 C6.02552138,15.8747994 5.91520225,15.9787499 5.76869011,15.9930387 C5.65141079,16.0048268 5.51986307,16.0055412 5.41198001,15.9637467 C2.51584207,14.8424389 0.688790365,12.7487832 0.130582569,9.61455101 C-0.633647056,5.32257468 2.03002031,1.21670904 6.19848227,0.221142 C10.2806378,-0.753706386 14.2375098,1.58607262 15.5481149,5.43652728 C16.6728826,8.74508194 15.6525178,12.3701319 12.9930265,14.5780974 C12.2752316,15.1741709 11.4587776,15.6327672 10.5827103,15.9319543 C10.2235642,16.0551946 10.0025779,15.8944464 10.0011859,15.5032925 C9.99874977,14.8074315 10.0011859,14.1119277 10.0011859,13.4160667 C10.0011859,12.8248707 9.89017071,12.2708253 9.47186289,11.7900097 C9.68380091,11.7542878 9.87346623,11.7217809 10.0634797,11.6864164 C10.5966307,11.5863953 11.1095972,11.4242182 11.5755824,11.1330854 C12.4699677,10.5736818 12.8854915,9.70778494 13.0309596,8.68042551 C13.1217902,8.03743279 13.1468469,7.39122508 12.9711019,6.75359067 C12.8559107,6.33528819 12.6714655,5.95627971 12.3794851,5.63728389 C12.3151034,5.56584025 12.3060551,5.509757 12.337724,5.41866637 C12.5694986,4.74781065 12.4908483,4.08481372 12.2629018,3.43217612 C12.2461974,3.38395167 12.1508427,3.3371561 12.091333,3.33608444 C11.6389202,3.32894007 11.2314007,3.50540585 10.8360615,3.70616246 C10.608463,3.82190115 10.396177,3.96943225 10.1696226,4.08874312 C10.091415,4.13195482 10.0016349,4.14787832 9.91383541,4.13410983 C9.22164383,3.97121835 8.52179604,3.85905184 7.81220397,3.9094196 C7.25956431,3.94835638 6.71005674,4.04373363 6.16194124,4.1333954 C6.04519105,4.15886531 5.92337428,4.1339348 5.8250677,4.06445229 C5.33785392,3.74116985 4.82871551,3.46146802 4.24579901,3.355017 C3.82435909,3.27785787 3.79338621,3.29107495 3.68237108,3.71223517 C3.53098679,4.29235748 3.50558207,4.87105091 3.70359967,5.44831548 C3.71803937,5.50626121 3.707245,5.56778774 3.67401884,5.61692245 C3.09075433,6.35493519 2.88856061,7.20047058 2.95816258,8.13423886 C2.99644367,8.65899236 3.07474588,9.17231486 3.27137144,9.66063215 C3.69420341,10.7140685 4.50228228,11.2949052 5.54178769,11.5785365 C5.86787291,11.6681982 6.20439844,11.7242815 6.55936848,11.8007262 Z" id="Path"></path>
            </g>
        </g>
    </g>
</svg>