<?xml version="1.0" encoding="UTF-8"?>
<svg width="16px" height="16px" viewBox="0 0 16 16" version="1.1" xmlns="http://www.w3.org/2000/svg" xmlns:xlink="http://www.w3.org/1999/xlink">
    <title>linkedin-social-media-svgrepo-com</title>
    <g id="Home" stroke="none" stroke-width="1" fill="none" fill-rule="evenodd">
        <g id="Desktop-HD-Copy-12" transform="translate(-127.000000, -4131.000000)" fill="#515251" fill-rule="nonzero">
            <g id="linkedin-social-media-svgrepo-com" transform="translate(127.000000, 4131.000000)">
                <path d="M1.92789084,0.0132241715 C2.97412865,0.0132241715 3.85515789,0.894253411 3.85515789,1.94049123 C3.85515789,3.04177778 2.91904873,3.89529825 1.92789084,3.86775828 C0.909192982,3.89529825 0.000623781676,3.04177778 0.000623781676,1.94049123 C-0.0269161793,0.86671345 0.85414425,0.0132241715 1.92789084,0.0132241715" id="Shape"></path>
                <path d="M3.00166862,15.7066979 L0.799064327,15.7066979 C0.496218324,15.7066979 0.248421053,15.4589006 0.248421053,15.1560546 L0.248421053,5.5197193 C0.248421053,5.21687329 0.468678363,4.96907602 0.771524366,4.96907602 L3.00163743,4.96907602 C3.30448343,4.96907602 3.5522807,5.21687329 3.5522807,5.5197193 L3.5522807,15.1835945 C3.5522807,15.4589006 3.30451462,15.7066979 3.00166862,15.7066979" id="Shape"></path>
                <path d="M15.9418947,8.32801559 C15.9418947,6.29061988 14.4276023,4.69373879 12.3902066,4.69373879 L11.8120234,4.69373879 C10.7107368,4.69373879 9.63695906,5.21684211 9.05877583,6.07036257 C8.86605848,6.26307992 8.7834386,6.34569981 8.7834386,6.34569981 L8.7834386,5.24441326 C8.7834386,5.1342846 8.61823002,4.96907602 8.50810136,4.96907602 L5.7548538,4.96907602 C5.64472515,4.96907602 5.47951657,5.07920468 5.47951657,5.21687329 L5.47951657,15.4864717 C5.47951657,15.5966004 5.64472515,15.706729 5.7548538,15.706729 L8.78340741,15.706729 C8.89353606,15.706729 9.05874464,15.5966004 9.05874464,15.4864717 L9.05874464,9.5394308 C9.05874464,8.52073294 9.82964522,7.66721248 10.8483431,7.6397037 C11.3714464,7.6397037 11.839501,7.83242105 12.1974269,8.19034698 C12.5278129,8.52073294 12.6654815,8.98878752 12.6654815,9.51189084 L12.6654815,15.4313606 C12.6654815,15.5414893 12.8306901,15.706729 12.9408187,15.706729 L15.6940663,15.706729 C15.8041949,15.706729 15.9694035,15.5414893 15.9694035,15.4313606 L15.9694035,8.32801559 L15.9418947,8.32801559 Z" id="Shape"></path>
            </g>
        </g>
    </g>
</svg>