<svg xmlns="http://www.w3.org/2000/svg" viewBox="0 0 670.43 191.51"><defs><style>.cls-1{fill:#fff;}.cls-2{font-size:99px;font-family:GothamHTF-Black, Gotham HTF;font-weight:800;}.cls-3{letter-spacing:-0.04em;}.cls-4{letter-spacing:0em;}.cls-5{letter-spacing:-0.09em;}</style></defs><g id="Layer_2" data-name="Layer 2"><g id="Layer_2-2" data-name="Layer 2"><path d="M0,95.22c0-.14,0-.29,0-.44,0-.35,0-.69,0-1,0,.34,0,.67,0,1C0,94.91,0,95.07,0,95.22Z"/><path d="M16,133.33l-.26-.16-.1-.22Z"/><path d="M0,92.72c0-.14,0-.29,0-.44,0,.16,0,.31,0,.47,0,.33,0,.67,0,1C0,93.41,0,93.07,0,92.72Z"/><path d="M16,54.17l-.36.39c0-.08.07-.16.1-.23Z"/><path d="M70.24,93.75A31.62,31.62,0,0,1,7,94.57c0-.28,0-.54,0-.82s0-.54,0-.82a31.62,31.62,0,0,1,63.23.82Z"/><path d="M107.18,93.75a50.08,50.08,0,0,1-70.92,45.56c.79,0,1.57.06,2.36.06a45.62,45.62,0,1,0,0-91.23c-.79,0-1.57,0-2.36.06a50.08,50.08,0,0,1,70.92,45.55Z"/><path d="M152,93.75A72.47,72.47,0,0,1,42.74,156.22a64.1,64.1,0,1,0,0-124.93A72.46,72.46,0,0,1,152,93.75Z"/><path d="M194.5,93.75A93.75,93.75,0,0,1,59.36,177.87a86.48,86.48,0,1,0,0-168.23A93.74,93.74,0,0,1,194.5,93.75Z"/><path class="cls-1" d="M0,94.75c0-.33,0-.66,0-1,0,.34,0,.68,0,1,0,.15,0,.3,0,.44C0,95.07,0,94.91,0,94.75Zm0-2c0,.35,0,.69,0,1,0-.33,0-.67,0-1,0-.16,0-.31,0-.47C0,92.43,0,92.58,0,92.72Z"/><path d="M0,95.22c0-.14,0-.29,0-.44,0-.35,0-.69,0-1,0,.34,0,.67,0,1C0,94.91,0,95.07,0,95.22Z"/><path d="M16,133.33l-.26-.16-.1-.22Z"/><path d="M0,92.72c0-.14,0-.29,0-.44,0,.16,0,.31,0,.47,0,.33,0,.67,0,1C0,93.41,0,93.07,0,92.72Z"/><path d="M16,54.17l-.36.39c0-.08.07-.16.1-.23Z"/><path d="M70.24,93.75A31.62,31.62,0,0,1,7,94.57c0-.28,0-.54,0-.82s0-.54,0-.82a31.62,31.62,0,0,1,63.23.82Z"/><path d="M107.18,93.75a50.08,50.08,0,0,1-70.92,45.56c.79,0,1.57.06,2.36.06a45.62,45.62,0,1,0,0-91.23c-.79,0-1.57,0-2.36.06a50.08,50.08,0,0,1,70.92,45.55Z"/><path d="M152,93.75A72.47,72.47,0,0,1,42.74,156.22a64.1,64.1,0,1,0,0-124.93A72.46,72.46,0,0,1,152,93.75Z"/><path class="cls-1" d="M0,94.75c0-.33,0-.66,0-1,0,.34,0,.68,0,1,0,.15,0,.3,0,.44C0,95.07,0,94.91,0,94.75ZM15.59,133l.1.22.26.16Zm.1-78.62c0,.07-.07.15-.1.23l.36-.39ZM0,93.75c0-.33,0-.67,0-1,0-.16,0-.31,0-.47,0,.15,0,.3,0,.44C0,93.07,0,93.41,0,93.75Z"/><path d="M70.24,93.75A31.62,31.62,0,0,1,7,94.57c0-.28,0-.54,0-.82s0-.54,0-.82a31.62,31.62,0,0,1,63.23.82Z"/><path d="M107.18,93.75a50.08,50.08,0,0,1-70.92,45.56c.79,0,1.57.06,2.36.06a45.62,45.62,0,1,0,0-91.23c-.79,0-1.57,0-2.36.06a50.08,50.08,0,0,1,70.92,45.55Z"/><path class="cls-1" d="M0,94.75c0-.33,0-.66,0-1,0,.34,0,.68,0,1,0,.15,0,.3,0,.44C0,95.07,0,94.91,0,94.75ZM15.59,133l.1.22.26.16Zm.1-78.62c0,.07-.07.15-.1.23l.36-.39ZM0,93.75c0-.33,0-.67,0-1,0-.16,0-.31,0-.47,0,.15,0,.3,0,.44C0,93.07,0,93.41,0,93.75Z"/><text class="cls-2" transform="translate(211.57 87.38)"><tspan class="cls-3">W<tspan class="cls-4" x="106.62" y="0">ORLEY</tspan></tspan><tspan x="0" y="87">DIGI</tspan><tspan class="cls-5" x="216.61" y="87">T</tspan><tspan x="273.04" y="87">AL</tspan></text></g></g></svg>