<?xml version="1.0" encoding="UTF-8"?>
<svg width="190px" height="55px" viewBox="0 0 190 55" version="1.1" xmlns="http://www.w3.org/2000/svg" xmlns:xlink="http://www.w3.org/1999/xlink">
    <!-- Generator: Sketch 61.2 (89653) - https://sketch.com -->
    <title>Layer 2</title>
    <desc>Created with Sketch.</desc>
    <g id="Photography" stroke="none" stroke-width="1" fill="none" fill-rule="evenodd">
        <g id="Desktop-HD-Copy-14" transform="translate(-114.000000, -64.000000)" fill="#FFFFFF" fill-rule="nonzero">
            <g id="Layer-2" transform="translate(114.000000, 64.000000)">
                <g id="Growth-Zones">
                    <path d="M18.5010638,27.4261704 C18.5673086,32.5350981 14.4794064,36.7304043 9.37047872,36.7966491 C4.26155102,36.8628939 0.0662447931,32.7749917 1.28880358e-13,27.666064 L1.28880358e-13,27.2009044 C0.127309887,22.1374865 4.30297272,18.1179833 9.36756502,18.1836636 C14.4321573,18.2493439 18.5021793,22.3757815 18.4981383,27.4407981 L18.5010638,27.4261704 Z" id="Path"></path>
                    <path d="M54.8537234,27.4261704 C54.8537234,36.9006282 49.9640821,45.7042255 41.9206094,50.7110105 C33.8771366,55.7177956 23.81918,56.2186548 15.3180851,52.0357449 C25.498835,54.4668573 36.1254906,50.3777945 42.0505701,41.7492714 C47.9756496,33.1207484 47.9756496,21.7345179 42.0505701,13.1059949 C36.1254906,4.47747186 25.498835,0.388409043 15.3180851,2.81952147 C23.8185895,-1.36490775 33.8768877,-0.865164481 41.9207472,4.14126608 C49.9646068,9.14769664 54.8544832,17.9515716 54.8537234,27.4261704 Z" id="Path"></path>
                    <path d="M42.4202161,27.4261704 C42.4236634,35.0359814 38.3484619,42.0639495 31.7422254,45.8411012 C25.1359889,49.6182529 17.0121485,49.5651535 10.4558511,45.7019683 C17.9803555,47.4348018 25.7978141,44.3783751 30.1516031,38.0014322 C34.505392,31.6244893 34.505392,23.2307771 30.1516031,16.8538342 C25.7978141,10.4768912 17.9803555,7.42046451 10.4558511,9.15329806 C17.0114372,5.28839808 25.1357095,5.23403427 31.7424305,9.01085829 C38.3491515,12.7876823 42.4244521,19.8161018 42.4202161,27.4261704 Z" id="Path"></path>
                    <path d="M29.3079802,27.4261704 C29.3101801,32.4153227 26.7733386,37.0626728 22.5757247,39.7592787 C18.3781108,42.4558846 13.0967589,42.8310513 8.56010638,40.7548938 C8.7912234,40.7548938 9.01941489,40.772447 9.25053191,40.772447 C16.6206691,40.8839321 22.6857223,34.999632 22.7972074,27.6294949 C22.9086926,20.2593577 17.0243925,14.1943045 9.65425532,14.0828193 L9.25053191,14.0828193 C9.01941489,14.0828193 8.7912234,14.0828193 8.56010638,14.1003725 C13.0962865,12.0244316 18.3770474,12.3992916 22.5744932,15.0951977 C26.771939,17.7911037 29.3091836,22.4375374 29.3079802,27.4261704 L29.3079802,27.4261704 Z" id="Path"></path>
                </g>
                <g id="WORLEY-DIGITAL" transform="translate(57.000000, 4.000000)">
                    <polygon id="Path" points="0.165163399 0.616875 7.19185185 0.616875 10.0344009 10.387 13.2739216 0.558125 19.0691285 0.558125 22.3115468 10.387 25.1511983 0.616875 32.0648802 0.616875 25.4989107 21.1176875 19.6457516 21.1176875 16.113573 10.998 12.5871895 21.1176875 6.7340305 21.1176875"></polygon>
                    <g id="Group" transform="translate(31.583878, 0.000000)">
                        <path d="M11.0949237,21.4085 C9.61741293,21.422917 8.1511775,21.1465818 6.77749455,20.5948125 C5.48825086,20.0803135 4.30799755,19.3205334 3.30037037,18.3564375 C1.28438144,16.4036028 0.150437858,13.6954514 0.165163399,10.86875 L0.165163399,10.81 C0.15497171,9.38329177 0.443348733,7.97061197 1.01126362,6.6651875 C1.55763487,5.39747268 2.34537293,4.25150425 3.32934641,3.2929375 C4.33482405,2.31801902 5.51510759,1.5472513 6.80647059,1.02225 C9.58812499,-0.0743535236 12.6741626,-0.0743535236 15.455817,1.02225 C16.7452559,1.53635969 17.9255786,2.29618434 18.9329412,3.260625 C20.9519949,5.20741948 22.0903156,7.91176099 22.0797386,10.7365625 L22.0797386,10.7953125 C22.0896666,12.2219943 21.8013009,13.6346187 21.2336383,14.940125 C20.6855486,16.2068639 19.8980309,17.3525118 18.9155556,18.312375 C17.9100074,19.2864705 16.7296942,20.0562605 15.4384314,20.580125 C14.0579372,21.1414592 12.5822562,21.4228947 11.0949237,21.4085 Z M11.1499782,15.3895625 C11.7446795,15.3977421 12.33337,15.2681349 12.8711547,15.010625 C13.3762386,14.7719079 13.8278519,14.4310333 14.1982571,14.0089375 C14.5637425,13.5874996 14.8460521,13.0988712 15.0298693,12.5695625 C15.223274,12.018936 15.3213048,11.4385531 15.3196296,10.8540625 L15.3196296,10.7953125 C15.3245471,10.2057649 15.2264457,9.61999213 15.0298693,9.065125 C14.8378247,8.52767334 14.5511445,8.03002365 14.1837691,7.596375 C13.8173665,7.16788558 13.3675096,6.82084681 12.8624619,6.5770625 C11.7565054,6.0741365 10.4912941,6.0741365 9.38533769,6.5770625 C8.88365449,6.81857592 8.43522776,7.16027603 8.0669281,7.5816875 C7.70144267,8.0031254 7.41913308,8.49175383 7.2353159,9.0210625 C7.04191122,9.57168905 6.94388036,10.1520719 6.94555556,10.7365625 L6.94555556,10.7953125 C6.94063811,11.3848601 7.03873945,11.9706329 7.2353159,12.5255 C7.42736053,13.0629517 7.71404071,13.5606014 8.08141612,13.99425 C8.84806943,14.8996716 9.97313045,15.4112505 11.1499782,15.3895625 L11.1499782,15.3895625 Z" id="Shape"></path>
                        <path d="M23.9168192,0.616875 L33.7281046,0.616875 C35.5246187,0.616875 37.0014306,0.8254375 38.1585403,1.2425625 C39.2034283,1.58950793 40.1587275,2.16857229 40.9547277,2.9375 C41.5513317,3.53234033 42.0208197,4.24526888 42.3339869,5.0319375 C42.6556703,5.90500829 42.8110249,6.83202794 42.7918083,7.7638125 L42.7918083,7.8225625 C42.8335606,9.16642939 42.4608127,10.4900369 41.7254902,11.609 C40.984189,12.6638305 39.9858619,13.5058751 38.8278867,14.053 L43.5104139,20.97375 L35.8491503,20.97375 L32.0619826,15.1575 L30.6276688,15.1575 L30.6276688,20.97375 L23.9168192,20.97375 L23.9168192,0.616875 Z M33.5252723,10.310625 C34.1964974,10.34847 34.8616477,10.1639115 35.420305,9.7848125 C35.878828,9.44390685 36.1370161,8.89170627 36.107037,8.3160625 L36.107037,8.26025 C36.1470274,7.68264798 35.8866612,7.12578916 35.420305,6.7915 C34.8606155,6.44339948 34.2100008,6.27543372 33.5542484,6.30975 L30.6276688,6.30975 L30.6276688,10.3018125 L33.5252723,10.310625 Z" id="Shape"></path>
                        <polygon id="Path" points="44.4260566 0.616875 51.1398039 0.616875 51.1398039 15.1575 60.5772985 15.1575 60.5772985 20.97375 44.4260566 20.97375"></polygon>
                        <polygon id="Path" points="62.0405882 0.616875 79.1654248 0.616875 79.1654248 6.198125 68.6384314 6.198125 68.6384314 8.254375 78.4497168 8.254375 78.4497168 13.1805625 68.6384314 13.1805625 68.6384314 15.3895625 79.310305 15.3895625 79.310305 20.9708125 62.0405882 20.9708125"></polygon>
                        <polygon id="Path" points="87.0816776 13.7621875 79.5102397 0.616875 87.0266231 0.616875 90.468976 7.3055625 93.9461002 0.616875 101.375556 0.616875 93.7954248 13.6740625 93.7954248 20.97375 87.0816776 20.97375"></polygon>
                    </g>
                    <g id="Group" transform="translate(6.954248, 25.556250)">
                        <path d="M0.153572985,0.616875 L7.84091503,0.616875 C9.61151061,0.586595409 11.3765423,0.826229515 13.0768845,1.32775 C14.4488951,1.73252218 15.7234944,2.42060153 16.8205882,3.34875 C17.8028624,4.20647873 18.5696431,5.28891219 19.0575381,6.5065625 C19.5691405,7.81469715 19.8221631,9.21200819 19.8022222,10.6190625 L19.8022222,10.6778125 C19.8191969,12.1012387 19.5612952,13.5142806 19.0430501,14.8373125 C18.5409897,16.0908079 17.7548027,17.2068257 16.7481481,18.095 C15.632129,19.0584592 14.3334447,19.7802211 12.9320044,20.215875 C11.2091515,20.7511524 9.41365428,21.0069349 7.61200436,20.97375 L0.153572985,20.97375 L0.153572985,0.616875 Z M7.9771024,15.04 C9.52249092,15.04 10.7510748,14.7061042 11.662854,14.0383125 C12.5746333,13.3705208 13.0285911,12.2993125 13.0247521,10.8246875 L13.0247521,10.7659375 C13.0247521,9.2913125 12.5707698,8.22010417 11.662854,7.5523125 C10.7549383,6.88452083 9.52635439,6.54964583 7.9771024,6.5476875 L6.86732026,6.5476875 L6.86732026,15.04 L7.9771024,15.04 Z" id="Shape"></path>
                        <polygon id="Path" points="21.6972549 0.616875 28.3965142 0.616875 28.3965142 20.97375 21.6972549 20.97375"></polygon>
                        <path d="M41.5777124,21.4085 C40.0772097,21.421571 38.5862116,21.1660035 37.1733551,20.6535625 C35.8598629,20.1793562 34.6502246,19.4499661 33.6122004,18.50625 C32.5930384,17.5701349 31.7735964,16.4325119 31.2042919,15.163375 C30.5971349,13.8160642 30.2894929,12.3499374 30.3031373,10.86875 L30.3031373,10.81 C30.289755,9.36075884 30.5729187,7.92444579 31.1347495,6.59175 C31.6704454,5.31800935 32.4595862,4.1700002 33.4528322,3.2195 C34.4709386,2.25400387 35.6647511,1.49872014 36.9676253,0.9958125 C38.3720585,0.450569569 39.8652658,0.178510073 41.369085,0.193875 C42.9721774,0.163255239 44.5669029,0.435192678 46.0718954,0.9958125 C47.4331355,1.52213328 48.691022,2.29004211 49.7866231,3.2635625 L46.0197386,7.8578125 C45.3882196,7.31980783 44.6824144,6.87842006 43.9247712,6.5476875 C43.1799721,6.23514943 42.3808748,6.0773248 41.5748148,6.0835625 C40.9537371,6.07676021 40.3380346,6.20079598 39.7667102,6.4478125 C39.2258524,6.67836277 38.7376114,7.01933759 38.3323965,7.4495 C37.9249736,7.88563905 37.6077387,8.40000378 37.3993682,8.9623125 C37.1734333,9.57658302 37.0614431,10.2278989 37.0690414,10.8834375 L37.0690414,10.93925 C37.0609552,11.6165911 37.1829918,12.2890525 37.4283442,12.919125 C37.6510122,13.4949948 37.9872288,14.018758 38.416427,14.458375 C38.8460897,14.8900034 39.3590548,15.2270215 39.9231808,15.4483125 C40.5409318,15.6872813 41.1976299,15.8058787 41.85878,15.797875 C42.3213097,15.8073452 42.7835551,15.7679662 43.2380392,15.680375 C43.5591807,15.612322 43.868033,15.4944123 44.1536819,15.3308125 L44.1536819,13.295125 L40.7142266,13.295125 L40.7142266,8.9623125 L50.4414815,8.9623125 L50.4414815,18.3623125 C49.2805559,19.3101561 47.9710214,20.0538707 46.5673856,20.5625 C44.9671965,21.1437462 43.2773821,21.4302545 41.5777124,21.4085 L41.5777124,21.4085 Z" id="Path"></path>
                        <polygon id="Path" points="52.4466231 0.616875 59.1574728 0.616875 59.1574728 20.97375 52.4466231 20.97375"></polygon>
                    </g>
                    <polygon id="Path" points="75.0073638 31.930625 69.0991503 31.930625 69.0991503 26.173125 87.6293246 26.173125 87.6293246 31.930625 81.7124183 31.930625 81.7124183 46.53 75.0073638 46.53"></polygon>
                    <g id="Group" transform="translate(84.610022, 25.850000)">
                        <path d="M8.61457516,0.17625 L15.2790632,0.17625 L23.742963,20.68 L16.4438998,20.68 L15.3833769,17.9451875 L8.35379085,17.9451875 L7.32224401,20.68 L0.150675381,20.68 L8.61457516,0.17625 Z M13.7201525,13.118875 L11.8801743,8.1750625 L10.0459913,13.118875 L13.7201525,13.118875 Z" id="Shape"></path>
                        <polygon id="Path" points="24.5629847 0.323125 31.2738344 0.323125 31.2738344 14.86375 40.7142266 14.86375 40.7142266 20.68 24.5629847 20.68"></polygon>
                    </g>
                </g>
            </g>
        </g>
    </g>
</svg>